<svg xmlns="http://www.w3.org/2000/svg" width="64" height="64" viewBox="0 0 64 64" fill="none" stroke="#232019" stroke-width="3.2" stroke-linecap="round" stroke-linejoin="round"><circle cx="32" cy="36.4" r="8.4" fill="#232019" stroke="none"></circle><path d="M22.8 60 Q22.8 51 32 51 Q41.2 51 41.2 60 Z" fill="#232019" stroke="none"></path><path d="M24.8 52.8 L17.6 43.2"></path><path d="M39.2 52.8 L46.4 43.2"></path><path d="M32 11 L14 35 L18.8 38.6 L32 21 Z" fill="#232019" stroke="none"></path><path d="M32 11 L50 35 L45.2 38.6 L32 21 Z" fill="#b4552a" stroke="none"></path><path d="M10 36.4 Q7.6 39.8 10 43.2" stroke="#b4552a"></path><path d="M6.6 34.6 Q3.2 39.8 6.6 45" stroke="#b4552a"></path><path d="M54 36.4 Q56.4 39.8 54 43.2" stroke="#b4552a"></path><path d="M57.4 34.6 Q60.8 39.8 57.4 45" stroke="#b4552a"></path></svg>